<?xml version="1.0" encoding="UTF-8"?>
<!DOCTYPE svg PUBLIC "-//W3C//DTD SVG 1.1//EN" "http://www.w3.org/Graphics/SVG/1.1/DTD/svg11.dtd">
<!-- Creator: CorelDRAW -->
<svg xmlns="http://www.w3.org/2000/svg" xml:space="preserve" width="13.8184in" height="2.90388in" version="1.1" style="shape-rendering:geometricPrecision; text-rendering:geometricPrecision; image-rendering:optimizeQuality; fill-rule:evenodd; clip-rule:evenodd"
viewBox="0 0 3081.62 647.59"
 xmlns:xlink="http://www.w3.org/1999/xlink"
 xmlns:xodm="http://www.corel.com/coreldraw/odm/2003">
 <defs>
  <style type="text/css">
   <![CDATA[
    .fil0 {fill:#D2D915;fill-rule:nonzero}
    .fil1 {fill:white;fill-rule:nonzero}
   ]]>
  </style>
 </defs>
 <g id="Layer_x0020_1">
  <metadata id="CorelCorpID_0Corel-Layer"/>
  <path class="fil0" d="M2138.7 128.82l0.07 -105.49 112.87 0c0,35.14 0.1,70.31 0.19,105.49l-113.13 0z"/>
  <path class="fil0" d="M2412.6 317.19l-0.01 -163.7 112.87 0 0 168.53c0,53.4 -21.65,101.76 -56.65,136.75 -34.99,35.01 -83.35,56.66 -136.76,56.66 -26.99,0 -52.72,-5.54 -76.09,-15.56 -22.82,-9.78 -43.38,-23.82 -60.68,-41.12 -43.44,-38.35 -55.15,-83.35 -56.45,-129.1l0.12 -176.16 113.21 0c0.13,58.76 0.15,117.53 -0.43,176.2 1.95,20.7 11.39,39.12 25.83,52.28 14.13,12.88 33.08,20.72 54.49,20.72 21.79,0 42.04,-9.16 56.79,-23.93 14.55,-14.59 23.75,-34.64 23.75,-56.77l0 -4.79z"/>
  <g id="_50099048256">
   <path class="fil1" d="M980.47 0l2.82 0.02 0 112.74c-0.94,-0.02 -1.88,-0.03 -2.82,-0.03 -42.75,0 -76.62,15.79 -100.25,41.19 -25.7,27.62 -39.42,66.68 -39.42,109.28l0 249.13 -112.89 0 0 -248.89c-0.14,-3.76 -0.22,-7.27 -0.22,-10.56 0,-66.97 26.33,-128.69 69.73,-174.41 43.39,-45.69 103.87,-75.38 172.18,-78.23 3.82,-0.16 7.45,-0.24 10.87,-0.24z"/>
   <path class="fil1" d="M2509.28 114.44c-10.62,10.61 -25.3,17.18 -41.5,17.18 -16.2,0 -30.88,-6.56 -41.5,-17.18 -10.61,-10.63 -17.19,-25.29 -17.19,-41.49 0,-16.2 6.57,-30.88 17.19,-41.5 10.62,-10.62 25.3,-17.18 41.5,-17.18 16.2,0 30.88,6.57 41.5,17.18 10.62,10.61 17.19,25.3 17.19,41.5 0,16.2 -6.57,30.88 -17.19,41.49z"/>
   <path class="fil1" d="M1823.7 21.96c69.81,0 133,28.3 178.75,74.04 45.75,45.74 74.05,108.95 74.05,178.74 0,69.8 -28.3,133 -74.05,178.75 -45.74,45.74 -108.94,74.03 -178.75,74.03 -20.26,0 -39.98,-2.38 -58.87,-6.89 -19.47,-4.65 -38.07,-11.55 -55.5,-20.41l-2.45 -1.25 0 -145.93 7.94 9.81c13.07,16.13 29.68,29.32 48.66,38.36 18.23,8.71 38.66,13.58 60.21,13.58 38.68,0 73.7,-15.68 99.04,-41.02 25.34,-25.34 41.02,-60.35 41.02,-99.03 0,-38.67 -15.68,-73.69 -41.02,-99.03 -25.34,-25.34 -60.36,-41.02 -99.04,-41.02 -42.75,0 -76.62,15.79 -100.25,41.19 -25.69,27.62 -39.42,66.69 -39.42,109.28l0 362.43 -112.87 0 0 -362.18c-0.15,-3.75 -0.22,-7.27 -0.22,-10.56 0,-66.96 26.33,-128.69 69.73,-174.4 43.39,-45.7 103.87,-75.38 172.17,-78.24 3.83,-0.16 7.46,-0.24 10.87,-0.24z"/>
   <path class="fil1" d="M547.53 317.19l-0.01 -293.85 112.87 0 0 298.69c0,53.4 -21.65,101.76 -56.65,136.75 -34.99,35.01 -83.35,56.66 -136.76,56.66 -26.99,0 -52.72,-5.54 -76.09,-15.56 -22.82,-9.78 -43.38,-23.82 -60.68,-41.12 -17.3,17.31 -37.87,31.34 -60.7,41.12 -23.35,10 -49.09,15.56 -76.08,15.56 -53.4,0 -101.76,-21.65 -136.75,-56.65 -34.02,-34.02 -55.42,-80.65 -56.6,-132.28l-0.09 -303.17 112.88 0 0 294.56 -0.04 4.14c0.02,22.11 9.22,42.15 23.78,56.72 14.76,14.77 35.05,23.93 56.83,23.93 21.42,0 40.36,-7.84 54.49,-20.72 14.46,-13.17 23.9,-31.61 25.84,-52.32l0.23 -19.93 -0.02 -286.38 112.87 0c0,102.05 0.83,204.35 -0.19,306.35 1.95,20.7 11.39,39.12 25.83,52.28 14.13,12.88 33.08,20.72 54.49,20.72 21.79,0 42.04,-9.16 56.79,-23.93 14.55,-14.59 23.75,-34.64 23.75,-56.77l0 -4.79z"/>
   <path class="fil1" d="M1074.55 96c45.75,-45.74 108.95,-74.04 178.75,-74.04 3.42,0 7.06,0.09 10.87,0.24 68.3,2.86 128.78,32.54 172.18,78.24 43.4,45.7 69.73,107.44 69.73,174.4 0,3.29 -0.08,6.81 -0.23,10.56l0.01 226.13 -112.88 0 0 -226.37c0,-42.6 -13.72,-81.66 -39.42,-109.28 -23.63,-25.4 -57.5,-41.19 -100.25,-41.19 -38.68,0 -73.69,15.69 -99.03,41.02 -25.34,25.34 -41.02,60.36 -41.02,99.03 0,38.68 15.68,73.69 41.02,99.03 25.35,25.35 60.36,41.02 99.03,41.02 21.57,0 41.99,-4.87 60.23,-13.58 18.96,-9.05 35.58,-22.23 48.65,-38.36l7.95 -9.81 0 145.93 -2.46 1.25c-17.44,8.86 -36.03,15.76 -55.5,20.41 -18.89,4.51 -38.61,6.89 -58.88,6.89 -69.8,0 -133,-28.29 -178.75,-74.03 -45.74,-45.75 -74.03,-108.95 -74.03,-178.75 0,-69.79 28.29,-133 74.03,-178.74z"/>
   <path class="fil1" d="M2828.83 21.96c69.81,0 133,28.3 178.75,74.04 45.75,45.74 74.05,108.95 74.05,178.74 0,69.8 -28.3,133 -74.05,178.75 -45.74,45.74 -108.94,74.03 -178.75,74.03 -20.26,0 -39.98,-2.38 -58.87,-6.89 -19.47,-4.65 -38.07,-11.55 -55.5,-20.41l-2.45 -1.25 0 -145.93 7.94 9.81c13.07,16.13 29.68,29.32 48.66,38.36 18.23,8.71 38.66,13.58 60.21,13.58 38.68,0 73.7,-15.68 99.04,-41.02 25.34,-25.34 41.02,-60.35 41.02,-99.03 0,-38.67 -15.68,-73.69 -41.02,-99.03 -25.34,-25.34 -60.36,-41.02 -99.04,-41.02 -42.75,0 -76.62,15.79 -100.25,41.19 -25.69,27.62 -39.42,66.69 -39.42,109.28l0 362.43 -112.87 0 0 -362.18c-0.15,-3.75 -0.22,-7.27 -0.22,-10.56 0,-66.96 26.33,-128.69 69.73,-174.4 43.39,-45.7 103.87,-75.38 172.17,-78.24 3.83,-0.16 7.46,-0.24 10.87,-0.24z"/>
  </g>
 </g>
</svg>
