<?xml version="1.0" encoding="UTF-8"?>
<!DOCTYPE svg PUBLIC "-//W3C//DTD SVG 1.1//EN" "http://www.w3.org/Graphics/SVG/1.1/DTD/svg11.dtd">
<!-- Creator: CorelDRAW -->
<svg xmlns="http://www.w3.org/2000/svg" xml:space="preserve" width="42.1429in" height="19.3345in" version="1.1" style="shape-rendering:geometricPrecision; text-rendering:geometricPrecision; image-rendering:optimizeQuality; fill-rule:evenodd; clip-rule:evenodd"
viewBox="0 0 5825.65 2672.72"
 xmlns:xlink="http://www.w3.org/1999/xlink"
 xmlns:xodm="http://www.corel.com/coreldraw/odm/2003">
 <defs>
  <style type="text/css">
   <![CDATA[
    .str4 {stroke:black;stroke-width:1.44;stroke-miterlimit:2.61313}
    .str7 {stroke:white;stroke-width:36;stroke-miterlimit:2.61313}
    .str3 {stroke:black;stroke-width:57.95;stroke-linecap:round;stroke-linejoin:round;stroke-miterlimit:10}
    .str2 {stroke:#999999;stroke-width:57.95;stroke-linecap:round;stroke-linejoin:round;stroke-miterlimit:10}
    .str1 {stroke:black;stroke-width:57.95;stroke-linecap:round;stroke-linejoin:round;stroke-miterlimit:10}
    .str0 {stroke:#999999;stroke-width:57.95;stroke-linecap:round;stroke-linejoin:round;stroke-miterlimit:10}
    .str6 {stroke:black;stroke-width:57.95;stroke-linecap:round;stroke-linejoin:round;stroke-miterlimit:10}
    .str5 {stroke:#999999;stroke-width:57.95;stroke-linecap:round;stroke-linejoin:round;stroke-miterlimit:10}
    .fil4 {fill:none}
    .fil5 {fill:black}
    .fil0 {fill:gray}
    .fil2 {fill:#999999}
    .fil6 {fill:#CCCC33}
    .fil3 {fill:#E6E6E6}
    .fil1 {fill:white}
   ]]>
  </style>
 </defs>
 <g id="Layer_x0020_1">
  <metadata id="CorelCorpID_0Corel-Layer"/>
  <path class="fil0" d="M2252.6 1767.9c-58.6,0 -105.98,-85.4 -105.98,-190.44 0,-105.04 47.38,-190.13 105.98,-190.13 58.6,-0 105.95,85.09 105.95,190.13 0,105.04 -47.35,190.44 -105.95,190.44zm-95.69 41.77c-0.61,0.63 -1.87,0.94 -2.81,0.94 -277.72,8.72 -555.43,17.14 -835.3,25.87 2.8,-8.72 9.65,-11.22 14.34,-15.27 4.35,-4.37 9.04,-8.42 13.09,-13.09 4.99,-5.61 9.34,-11.22 13.73,-17.14 3.71,-4.68 7.46,-9.66 12.15,-15.58 30.86,-4.36 62.64,-9.04 94.45,-13.09 63.89,-8.1 127.47,-16.83 191.36,-23.69 55.49,-5.92 111.28,-10.28 167.07,-15.27 67.31,-5.61 134.62,-6.54 201.96,-4.99 15.58,0.31 31.16,-0.31 48.95,7.79 23.68,30.23 47.35,60.15 80.41,78.54 0.62,3.12 0.91,4.36 0.62,4.99zm-945.65 18.39c-100.35,0 -182.02,-112.2 -182.02,-250.59 0,-138.08 81.66,-250.28 182.02,-250.28 100.35,-0 181.71,112.2 181.71,250.28 0,138.39 -81.36,250.59 -181.71,250.59zm240.61 -159.89c40.21,-35.53 86.96,-60.15 136.21,-79.48 79.81,-31.17 163.02,-48.31 248.73,-51.12 41.47,-1.56 82.92,-1.56 124.34,0.62 29.95,1.25 59.54,7.17 89.17,12.16 10.93,1.56 22.42,4.36 30.22,16.83 -3.42,3.43 -5.91,8.73 -10.29,10.29 -15.26,5.61 -30.84,12.47 -46.76,15.27 -87.86,15.58 -175.78,29.61 -263.68,44.57 -71.38,12.46 -142.72,25.55 -214.1,38.34 -0.95,0.31 -1.58,1.56 -3.75,3.43 6.85,0.62 12.45,1.87 18.08,1.56 79.78,-3.43 159.56,-7.79 239.36,-9.98 72.62,-1.87 145.25,-1.56 217.87,-1.25 12.13,-0 24.29,3.74 36.47,6.55 3.74,0.93 6.52,4.36 13.68,9.35 -10.29,0.93 -16.19,1.87 -21.78,1.87 -67.34,2.18 -134.67,3.43 -201.99,6.54 -46.76,1.87 -93.21,5.92 -139.66,9.66 -75.42,5.92 -150.85,12.78 -226.27,18.7 -14.64,1.25 -29.28,1.25 -43.62,0.63 -5.93,-0.31 -11.54,-3.12 -20.88,-5.61 9.95,-22.13 23.99,-35.84 38.63,-48.93zm-510.53 7.79c3.44,1.25 7.79,4.05 12.48,4.68 13.09,2.49 26.48,4.05 39.9,6.55 6.54,0.93 11.51,4.05 12.45,13.71 -3.11,0.93 -6.55,2.49 -10.29,2.8 -7.15,0.62 -14.64,0.63 -21.82,0.63 -176.39,5.92 -352.5,12.47 -528.92,16.83 -75.73,2.18 -151.49,0.62 -227.22,-0.93 -54.85,-1.25 -109.7,-5.61 -164.88,-8.73 -6.85,-0.62 -14.03,-1.87 -21.82,-3.12 -1.86,-12.47 14.03,-13.09 14.34,-22.75 0.33,-3.12 0.94,-6.23 0.64,-9.35 -3.44,-27.74 -7.18,-55.48 -9.98,-83.22 -1.25,-10.29 -0.61,-20.88 -0.91,-31.17 0,-25.87 13.09,-43.32 35.82,-53.61 19.03,-8.73 39.27,-12.47 60.15,-14.65 78.25,-9.35 157.09,-13.72 235.95,-13.09 44.56,0.31 89.15,-0.31 133.71,1.56 28.07,1.25 56.1,4.68 83.52,9.35 45.84,7.48 86.65,28.36 124.67,53.92 32.11,21.19 62.34,44.57 93.5,67.33 11.54,8.41 22.77,17.76 34.61,26.18 7.79,5.3 15.89,10.28 24.32,13.72 22.13,9.04 43.01,6.86 60.45,-10.29 7.49,-7.17 14.34,-14.96 20.27,-23.38 17.78,-25.87 29.28,-54.54 43.01,-88.21 -9.34,-0.62 -14.34,-2.18 -19.02,-0.94 -10.9,2.49 -22.13,5.61 -32.72,9.66 -24.62,9.35 -50.16,12.47 -76.37,10.91 -13.39,-0.62 -26.79,-0.93 -46.75,-1.56 35.86,-15.59 68.58,-19.64 100.05,-27.11 30.86,-7.17 61.73,-15.9 96,-18.08 -0.61,5.61 -0.91,9.35 -1.86,12.78 -11.84,46.75 -29.62,90.7 -54.54,131.84 -4.69,7.79 -11.54,14.96 -8.74,27.74zm1366.41 131.84c4.38,-4.68 6.54,-8.1 9.37,-10.6 19.64,-17.76 32.71,-39.89 43,-64.21 12.16,-28.99 18.7,-126.85 16.83,-208.82 -0.64,-14.34 -2.19,-28.99 -4.38,-43.32 -4.04,-29.92 -11.2,-59.22 -23.68,-86.65 -8.39,-18.08 -18.68,-34.91 -33.67,-48.31 -24.93,-23.06 -56.09,-27.12 -86.31,-11.85 -14.03,7.48 -25.57,17.77 -34.92,30.55 -7.78,10.91 -14.96,22.44 -21.51,34.28 -16.19,29.3 -27.42,38.65 -65.44,28.05 -47.06,-13.09 -95.69,-18.08 -144.64,-20.88 -86.95,-5.3 -174.22,-1.56 -261.18,2.8 -10.29,0.62 -20.88,-0.31 -30.83,-1.87 -4.38,-0.94 -7.79,-5.61 -12.18,-8.42 9.04,-16.21 23.68,-22.44 37.41,-28.68 38.02,-17.46 77.92,-29.3 118.43,-38.02 46.76,-9.98 93.52,-17.46 141.21,-22.13 -28.67,-4.36 -57.34,-3.12 -85.72,-1.25 -77.62,5.92 -155.23,11.84 -232.52,22.44 -63.58,9.04 -127.17,19.33 -187.01,43.95 -4.99,1.87 -9.68,3.74 -14.98,4.99 -22.13,5.92 -40.82,0.93 -54.21,-19.02 -4.69,-6.86 -9.37,-13.71 -14.67,-19.94 -9.95,-12.16 -19.33,-24.62 -30.23,-35.53 -50.19,-48.63 -108.14,-57.66 -172.37,-32.11 -27.42,10.91 -50.5,28.68 -71.04,49.25 -8.13,8.1 -16.22,16.21 -24.96,23.38 -11.5,9.35 -128.39,41.77 -171.42,47.06 -52.35,6.23 -105.34,9.66 -158,14.03 -4.05,0.31 -9.68,2.49 -12.78,-4.68 26.18,-11.53 52.99,-18.7 79.17,-28.05 30.53,-10.6 61.7,-18.08 94.45,-17.14 11.84,0.62 22.43,-2.18 32.08,-9.04 9.35,-6.55 18.72,-13.09 28.37,-19.33 10.29,-6.55 20.88,-12.78 35.52,-22.13 -21.49,-0.63 -38.02,-1.25 -54.21,3.12 -22.13,5.92 -43.95,11.84 -65.47,19.32 -71.38,25.56 -142.42,51.43 -213.19,77.92 -29.28,10.91 -59.2,10.91 -89.76,8.41 4.99,-4.05 10.59,-6.55 16.22,-8.73 22.43,-7.8 45.17,-15.58 67.3,-23.69 71.38,-26.18 142.14,-52.36 213.52,-78.23 26.18,-9.66 53.3,-17.14 81.33,-18.7 30.25,-2.18 60.17,-4.05 90.1,-4.99 17.14,-0.63 32.42,-4.36 47.36,-13.4 37.41,-22.75 78.56,-37.09 122.18,-43.32 35.85,-5.3 72.02,-9.66 110.34,-14.96 -6.24,-0.31 -10.29,-0.93 -14.64,-0.62 -57.98,1.87 -115.94,3.74 -174.23,6.23 -25.87,1.25 -51.74,3.74 -77.31,6.86 -75.73,9.03 -148.96,27.12 -220.34,52.67 -38.35,13.71 -76.37,27.43 -114.38,40.83 -34.3,12.15 -69.83,20.26 -106.29,22.13 -49.89,2.49 -99.44,4.05 -149.3,6.55 -57.98,2.81 -115.97,6.86 -174.23,9.66 -30.86,1.56 -62.03,2.18 -93.2,2.81 -6.24,0.31 -12.79,-0.31 -15.58,-7.79 8.09,-15.27 8.09,-15.27 16.19,-21.51 15.28,-12.16 20.58,-14.96 38.96,-19.33 -6.54,14.65 -23.98,19.95 -27.42,38.03 11.84,-0 22.13,0.62 32.42,0 71.38,-4.99 142.75,-9.98 214.13,-15.27 43.95,-3.12 85.71,-13.72 124.67,-35.53 21.52,-12.16 44.56,-22.44 67.63,-30.86 93.81,-34.6 191.06,-56.41 290.19,-68.57 9.04,-1.25 18.05,0 33.03,0 -37.71,14.34 -71.68,23.38 -104.74,39.58 10.29,5.61 17.47,1.56 24.96,-0.63 82.27,-22.75 165.79,-37.71 251.2,-40.83 47.69,-1.87 95.36,-3.74 143.06,-6.23 23.07,-1.25 45.81,-3.12 68.27,-5.92 30.83,-3.74 57.95,-15.89 79.78,-38.34 19.33,-20.57 38.02,-41.45 57.34,-61.71 17.47,-17.77 34.61,-35.84 52.99,-52.36 32.42,-28.99 70.13,-48 113.44,-54.23 12.18,-1.87 24.32,-4.36 42.1,-7.48 -49.55,-9.04 -93.81,-13.71 -138.06,-15.27 -117.52,-3.74 -234.71,-0.93 -350.98,17.14 -80.08,12.46 -158.95,30.23 -235.62,57.04 -86.96,30.54 -167.68,72 -239.06,130.6 -21.52,17.76 -41.76,37.4 -62.98,56.73 -7.45,1.24 -15.58,3.12 -23.98,3.74 -65.14,5.61 -313.23,40.83 -369.67,56.73 -34.91,9.66 -69.83,20.26 -101.91,37.4 -17.14,9.04 -34.61,19.32 -49.25,32.1 -24.93,21.81 -27.43,42.39 -12.78,72.31 3.1,6.23 5.93,12.16 9.65,20.26 -13.09,0.31 -23.38,2.18 -31.17,-3.43 -12.15,-9.35 -9.35,-24 -16.83,-36.47 -4.66,13.09 -8.71,24.31 -13.09,36.16 -4.05,-0.94 -6.85,-1.56 -9.65,-2.18l0 -28.68c-3.74,3.43 -6.54,4.99 -8.43,7.48 -28.67,33.04 -40.51,72.31 -36.77,115.32 3.44,40.21 7.79,80.73 13.39,120.62 3.44,24 2.83,45.5 -18.99,61.4 -1.55,0.94 -1.89,3.43 -2.8,5.61 -2.19,14.34 4.96,24.62 17.44,29.3 11.23,4.36 24.02,6.55 36.16,7.79 18.39,1.87 37.41,1.56 55.79,3.12 23.68,1.87 44.26,10.6 60.78,28.05 6.21,6.86 13.7,12.78 20.58,19.01 26.48,22.75 56.4,38.34 91.01,45.19 38.02,7.79 75.73,9.04 114.39,5.3 41.76,-3.74 78.53,-18.39 110.64,-44.57 9.04,-7.48 17.77,-14.65 26.17,-22.44 11.23,-10.29 23.68,-15.27 39.27,-15.9 45.5,-0.94 91.34,-3.74 136.85,-4.99 57.04,-1.56 114.05,-2.81 171.43,-3.74 17.44,-0.31 35.22,0.94 52.66,1.25 21.52,-0 37.41,9.04 50.8,25.56 16.53,20.26 35.55,37.71 57.68,51.74 1.25,0.93 1.55,3.12 2.5,6.23 -7.79,3.74 -15.92,3.12 -24.02,3.43 -39.57,0.93 -78.86,1.56 -118.43,2.49 -134.66,4.05 -269.62,8.1 -404.58,12.78 -94.42,3.12 -188.87,6.86 -282.98,10.91 -61.42,2.49 -122.51,6.23 -183.6,9.35 20.58,2.8 41.15,3.43 61.73,3.74 249.01,1.56 498.36,0 747.4,-5.3 53.94,-1.25 108.15,-1.25 162.08,-2.81 93.2,-2.8 186.7,-6.54 279.9,-9.66 91.31,-2.8 182.63,-4.98 273.94,-8.1 61.42,-1.87 122.51,-4.36 183.6,-7.17 73.54,-3.12 147.42,-6.55 220.99,-9.97 57.03,-2.5 114.07,-4.99 171.12,-8.1 35.2,-1.87 70.41,-4.05 105.63,-6.86 45.51,-3.12 91.01,-7.17 136.52,-10.29 16.54,-0.93 32.71,-2.8 48.63,-9.66 -37.41,-0.94 -74.5,3.43 -114.71,-0zm-751.26 -765.98c-34.61,34.83 -63.4,74.03 -89.4,115.42 -2.07,3.28 -2.68,7.47 -4.42,12.55 4.84,3.21 8.65,6.94 13.15,8.49 11.75,4.02 23.65,7.83 35.76,10.4 50.86,10.77 102.7,14.17 154.38,18.17 46.51,3.6 93.2,5.35 139.77,8.43 92.38,6.11 184.64,3.71 276.86,-2.71 13.39,-0.93 26.78,-3.44 39.94,-6.24 4.19,-0.89 7.65,-5.11 11.1,-7.57 -4.87,-13.36 -14.64,-19.92 -23.31,-27.06 -84.91,-69.78 -178.34,-124.76 -282.42,-160.75 -43.34,-14.99 -87.93,-23.93 -134.1,-24.38 -53.54,-0.52 -99.35,17 -137.33,55.26zm412.85 227.66c57.2,0.93 114.02,-3.51 170.75,-10.66 27.76,-3.51 55.74,-5.19 83.61,-7.87 4.04,-0.39 9.33,2.11 12.38,-4.18 -21.73,-7.3 -43.39,-8.27 -65.15,-8.09 -72.85,0.63 -144.47,11.43 -216.9,29.83 5.12,0.33 10.19,0.88 15.31,0.97zm-1203.39 383.32c-48.18,-37.84 -97.64,-73.84 -150.94,-104.29 -30.01,-17.14 -61.73,-29.8 -95.94,-34.97 -21.49,-3.25 -43.31,-5.55 -65.05,-6.23 -90.31,-2.83 -180.59,-1.68 -270.68,6.09 -16.5,1.42 -33.02,3.7 -49.31,6.88 -12.11,2.37 -24.26,5.85 -35.67,10.56 -24.96,10.27 -39.42,29.32 -43.86,56.09 -4.54,27.14 -1.04,53.58 4.9,80.13 4.29,19.26 15.89,30.75 39.78,32.3 21.76,1.41 43.43,4.07 65.2,4.65 118.31,3.16 236.62,4.72 354.84,-3.06 46.6,-3.07 93.26,-4.96 139.8,-8.62 36.19,-2.84 72.26,-7.35 108.27,-11.77 5.39,-0.66 10.32,-4.9 17.44,-8.5 -7.36,-7.67 -12.42,-14.29 -18.78,-19.27z"/>
  <polygon class="fil1 str0" points="4071.01,655.39 4071.01,2069.59 2817.92,2069.59 2817.92,655.39 "/>
  <path class="fil2" d="M2469.09 60.11c277.24,0 502.69,221.64 508.87,497.39l39.91 0c-6.19,-297.79 -249.5,-537.3 -548.78,-537.3 -299.28,0 -542.59,239.51 -548.78,537.3l39.91 0c6.18,-275.75 231.63,-497.39 508.87,-497.39z"/>
  <path class="fil2" d="M4446.76 2630.13c295.81,0 536.36,-236.49 542.95,-530.71l42.58 0c-6.6,317.74 -266.21,573.29 -585.54,573.29 -319.32,0 -578.93,-255.55 -585.54,-573.29l42.58 0c6.59,294.22 247.15,530.71 542.95,530.71z"/>
  <path class="fil3 str0" d="M4071.01 535.28l0 -4.03c0,-88.26 -71.45,-159.71 -159.72,-159.71l-933.75 -0.01c-88.16,0 -159.63,71.47 -159.63,159.73l0 4.02 0 120.11 1253.09 0 0 -120.11z"/>
  <path class="fil3 str0" d="M2817.92 2069.59l0 124.13c0,88.27 71.46,159.73 159.62,159.73l933.75 -0c88.27,0 159.72,-71.44 159.72,-159.72l0 -124.14 -1253.09 0z"/>
  <line class="fil4 str1" x1="3321.56" y1="513.46" x2="3567.38" y2= "513.46" />
  <path class="fil0" d="M3943.57 1493.92c-27.54,0 -49.8,-40.13 -49.8,-89.5 0,-49.36 22.27,-89.35 49.8,-89.35 27.54,-0 49.79,39.99 49.79,89.35 0,49.36 -22.25,89.5 -49.79,89.5zm-44.97 19.63c-0.29,0.29 -0.88,0.44 -1.32,0.44 -130.51,4.1 -261.02,8.06 -392.55,12.16 1.32,-4.1 4.53,-5.27 6.74,-7.18 2.05,-2.05 4.25,-3.96 6.15,-6.15 2.35,-2.64 4.39,-5.27 6.45,-8.06 1.75,-2.2 3.5,-4.54 5.71,-7.32 14.5,-2.05 29.44,-4.25 44.39,-6.15 30.03,-3.81 59.91,-7.91 89.93,-11.13 26.08,-2.78 52.3,-4.83 78.52,-7.18 31.63,-2.64 63.26,-3.08 94.91,-2.34 7.32,0.15 14.64,-0.15 23.01,3.66 11.13,14.21 22.25,28.27 37.79,36.91 0.29,1.46 0.43,2.05 0.29,2.34zm-444.41 8.64c-47.16,0 -85.54,-52.73 -85.54,-117.77 0,-64.89 38.38,-117.62 85.54,-117.62 47.16,-0 85.4,52.73 85.4,117.62 0,65.03 -38.24,117.77 -85.4,117.77zm113.08 -75.14c18.9,-16.7 40.87,-28.27 64.01,-37.35 37.51,-14.65 76.61,-22.7 116.89,-24.02 19.49,-0.73 38.97,-0.73 58.43,0.29 14.08,0.59 27.98,3.37 41.9,5.71 5.14,0.73 10.54,2.05 14.2,7.91 -1.61,1.61 -2.78,4.1 -4.83,4.83 -7.17,2.64 -14.49,5.86 -21.98,7.18 -41.29,7.32 -82.61,13.92 -123.92,20.95 -33.54,5.86 -67.07,12.01 -100.62,18.02 -0.44,0.15 -0.74,0.73 -1.76,1.61 3.22,0.29 5.85,0.88 8.5,0.73 37.49,-1.61 74.98,-3.66 112.49,-4.69 34.13,-0.88 68.26,-0.73 102.39,-0.59 5.7,0 11.42,1.76 17.14,3.08 1.76,0.44 3.07,2.05 6.43,4.39 -4.83,0.44 -7.61,0.88 -10.24,0.88 -31.65,1.02 -63.29,1.61 -94.92,3.08 -21.97,0.88 -43.8,2.78 -65.63,4.54 -35.45,2.78 -70.89,6.01 -106.34,8.79 -6.88,0.59 -13.76,0.59 -20.5,0.29 -2.79,-0.15 -5.42,-1.47 -9.81,-2.64 4.68,-10.4 11.27,-16.84 18.15,-23zm-239.93 3.66c1.62,0.59 3.66,1.9 5.86,2.2 6.15,1.17 12.44,1.9 18.75,3.08 3.08,0.44 5.41,1.9 5.85,6.44 -1.46,0.44 -3.08,1.17 -4.84,1.32 -3.36,0.29 -6.88,0.29 -10.26,0.29 -82.89,2.78 -165.66,5.86 -248.57,7.91 -35.59,1.02 -71.19,0.29 -106.78,-0.44 -25.78,-0.59 -51.55,-2.64 -77.49,-4.1 -3.22,-0.29 -6.59,-0.88 -10.26,-1.46 -0.87,-5.86 6.59,-6.15 6.74,-10.69 0.16,-1.46 0.44,-2.93 0.3,-4.39 -1.62,-13.04 -3.37,-26.07 -4.69,-39.11 -0.59,-4.83 -0.29,-9.81 -0.43,-14.65 0,-12.16 6.15,-20.36 16.84,-25.19 8.94,-4.1 18.45,-5.86 28.27,-6.88 36.78,-4.4 73.82,-6.45 110.89,-6.15 20.94,0.15 41.9,-0.15 62.84,0.73 13.19,0.59 26.36,2.2 39.25,4.39 21.54,3.52 40.72,13.33 58.59,25.34 15.09,9.96 29.3,20.95 43.94,31.64 5.42,3.95 10.7,8.35 16.26,12.3 3.66,2.49 7.47,4.83 11.43,6.45 10.4,4.25 20.21,3.22 28.41,-4.83 3.52,-3.37 6.74,-7.03 9.53,-10.99 8.35,-12.16 13.76,-25.63 20.21,-41.45 -4.39,-0.29 -6.74,-1.03 -8.94,-0.44 -5.12,1.17 -10.4,2.64 -15.38,4.54 -11.57,4.39 -23.57,5.86 -35.89,5.13 -6.29,-0.29 -12.59,-0.44 -21.97,-0.73 16.85,-7.32 32.23,-9.23 47.02,-12.74 14.5,-3.37 29.01,-7.47 45.12,-8.5 -0.29,2.64 -0.43,4.39 -0.87,6.01 -5.56,21.97 -13.92,42.62 -25.63,61.96 -2.2,3.66 -5.42,7.03 -4.11,13.04zm642.15 61.96c2.06,-2.2 3.08,-3.81 4.41,-4.98 9.23,-8.35 15.37,-18.75 20.21,-30.17 5.71,-13.62 8.79,-59.61 7.91,-98.14 -0.3,-6.74 -1.03,-13.62 -2.06,-20.36 -1.9,-14.06 -5.26,-27.83 -11.13,-40.72 -3.94,-8.5 -8.78,-16.41 -15.82,-22.7 -11.72,-10.84 -26.36,-12.74 -40.56,-5.57 -6.59,3.52 -12.02,8.35 -16.41,14.36 -3.65,5.13 -7.03,10.55 -10.11,16.11 -7.61,13.77 -12.89,18.16 -30.76,13.18 -22.11,-6.15 -44.97,-8.5 -67.97,-9.81 -40.86,-2.49 -81.88,-0.73 -122.74,1.32 -4.83,0.29 -9.81,-0.15 -14.49,-0.88 -2.06,-0.44 -3.66,-2.64 -5.72,-3.95 4.25,-7.62 11.13,-10.55 17.58,-13.48 17.87,-8.2 36.62,-13.77 55.66,-17.87 21.97,-4.69 43.95,-8.2 66.36,-10.4 -13.47,-2.05 -26.95,-1.47 -40.29,-0.59 -36.48,2.78 -72.95,5.57 -109.27,10.55 -29.88,4.25 -59.76,9.08 -87.89,20.65 -2.35,0.88 -4.55,1.76 -7.04,2.34 -10.4,2.78 -19.18,0.44 -25.48,-8.94 -2.2,-3.22 -4.41,-6.44 -6.89,-9.37 -4.68,-5.71 -9.08,-11.57 -14.2,-16.7 -23.59,-22.85 -50.82,-27.1 -81,-15.09 -12.89,5.13 -23.73,13.48 -33.39,23.14 -3.82,3.81 -7.62,7.62 -11.73,10.99 -5.41,4.39 -60.34,19.63 -80.56,22.12 -24.6,2.93 -49.51,4.54 -74.25,6.59 -1.9,0.15 -4.55,1.17 -6.01,-2.2 12.3,-5.42 24.9,-8.79 37.21,-13.18 14.35,-4.98 28.99,-8.5 44.39,-8.06 5.56,0.29 10.54,-1.02 15.08,-4.25 4.39,-3.08 8.8,-6.15 13.33,-9.08 4.83,-3.08 9.81,-6.01 16.69,-10.4 -10.1,-0.29 -17.87,-0.59 -25.48,1.47 -10.4,2.78 -20.66,5.57 -30.77,9.08 -33.54,12.01 -66.93,24.17 -100.19,36.62 -13.76,5.13 -27.82,5.13 -42.18,3.95 2.35,-1.9 4.98,-3.08 7.62,-4.1 10.54,-3.66 21.23,-7.32 31.63,-11.13 33.54,-12.3 66.8,-24.61 100.35,-36.77 12.3,-4.54 25.05,-8.06 38.22,-8.79 14.22,-1.03 28.28,-1.9 42.34,-2.34 8.05,-0.29 15.23,-2.05 22.26,-6.3 17.58,-10.69 36.92,-17.43 57.42,-20.36 16.85,-2.49 33.84,-4.54 51.85,-7.03 -2.93,-0.15 -4.83,-0.44 -6.88,-0.29 -27.25,0.88 -54.49,1.76 -81.88,2.93 -12.16,0.59 -24.32,1.76 -36.33,3.22 -35.59,4.25 -70.01,12.74 -103.55,24.75 -18.02,6.44 -35.89,12.89 -53.76,19.19 -16.12,5.71 -32.81,9.52 -49.95,10.4 -23.45,1.17 -46.73,1.9 -70.16,3.08 -27.25,1.32 -54.5,3.22 -81.88,4.54 -14.5,0.73 -29.15,1.03 -43.8,1.32 -2.93,0.15 -6.01,-0.15 -7.32,-3.66 3.8,-7.18 3.8,-7.18 7.61,-10.11 7.18,-5.71 9.67,-7.03 18.31,-9.08 -3.08,6.88 -11.27,9.37 -12.89,17.87 5.56,-0 10.4,0.29 15.24,0 33.54,-2.35 67.09,-4.69 100.63,-7.18 20.66,-1.47 40.28,-6.45 58.59,-16.7 10.11,-5.71 20.94,-10.55 31.78,-14.5 44.09,-16.26 89.79,-26.51 136.38,-32.22 4.25,-0.59 8.48,0 15.52,0 -17.72,6.74 -33.69,10.99 -49.22,18.6 4.83,2.64 8.21,0.73 11.73,-0.29 38.66,-10.69 77.91,-17.72 118.05,-19.19 22.41,-0.88 44.81,-1.76 67.23,-2.93 10.84,-0.59 21.53,-1.46 32.09,-2.78 14.49,-1.76 27.24,-7.47 37.49,-18.02 9.08,-9.67 17.87,-19.48 26.95,-29 8.21,-8.35 16.26,-16.85 24.9,-24.61 15.23,-13.62 32.96,-22.56 53.31,-25.49 5.72,-0.88 11.43,-2.05 19.78,-3.52 -23.29,-4.25 -44.09,-6.44 -64.88,-7.18 -55.23,-1.76 -110.3,-0.44 -164.94,8.06 -37.64,5.86 -74.7,14.21 -110.73,26.8 -40.87,14.35 -78.8,33.84 -112.35,61.37 -10.11,8.35 -19.63,17.58 -29.6,26.66 -3.5,0.58 -7.32,1.46 -11.27,1.76 -30.61,2.63 -147.21,19.19 -173.73,26.66 -16.41,4.54 -32.82,9.52 -47.89,17.58 -8.05,4.25 -16.26,9.08 -23.14,15.09 -11.72,10.25 -12.89,19.92 -6.01,33.98 1.46,2.93 2.79,5.71 4.53,9.52 -6.15,0.15 -10.99,1.03 -14.65,-1.61 -5.71,-4.39 -4.39,-11.28 -7.91,-17.14 -2.19,6.15 -4.09,11.43 -6.15,16.99 -1.9,-0.44 -3.22,-0.73 -4.54,-1.02l0 -13.48c-1.76,1.61 -3.07,2.34 -3.96,3.52 -13.47,15.53 -19.04,33.98 -17.28,54.2 1.62,18.9 3.66,37.94 6.29,56.69 1.62,11.28 1.33,21.39 -8.93,28.85 -0.73,0.44 -0.89,1.61 -1.32,2.64 -1.03,6.74 2.33,11.57 8.2,13.77 5.28,2.05 11.29,3.08 16.99,3.66 8.64,0.88 17.58,0.73 26.22,1.47 11.13,0.88 20.8,4.98 28.57,13.18 2.92,3.22 6.44,6.01 9.67,8.94 12.45,10.69 26.51,18.02 42.77,21.24 17.87,3.66 35.59,4.25 53.76,2.49 19.62,-1.76 36.9,-8.64 52,-20.95 4.25,-3.51 8.35,-6.88 12.3,-10.55 5.28,-4.84 11.13,-7.18 18.45,-7.47 21.39,-0.44 42.93,-1.76 64.31,-2.34 26.81,-0.73 53.6,-1.32 80.56,-1.76 8.2,-0.15 16.55,0.44 24.75,0.59 10.11,-0 17.58,4.25 23.87,12.01 7.77,9.52 16.71,17.72 27.11,24.31 0.59,0.44 0.73,1.47 1.17,2.93 -3.66,1.76 -7.48,1.46 -11.29,1.61 -18.59,0.44 -37.06,0.73 -55.66,1.17 -63.28,1.9 -126.71,3.81 -190.13,6.01 -44.37,1.46 -88.76,3.22 -132.99,5.13 -28.87,1.17 -57.57,2.93 -86.28,4.39 9.67,1.32 19.34,1.61 29.01,1.76 117.02,0.73 234.2,0 351.24,-2.49 25.35,-0.59 50.82,-0.59 76.17,-1.32 43.8,-1.32 87.74,-3.08 131.54,-4.54 42.91,-1.32 85.83,-2.34 128.74,-3.81 28.87,-0.88 57.58,-2.05 86.28,-3.37 34.56,-1.46 69.28,-3.08 103.85,-4.69 26.8,-1.17 53.61,-2.34 80.42,-3.81 16.54,-0.88 33.09,-1.9 49.64,-3.22 21.39,-1.47 42.77,-3.37 64.16,-4.83 7.77,-0.44 15.37,-1.32 22.86,-4.54 -17.58,-0.44 -35.01,1.61 -53.91,-0zm-353.06 -359.97c-16.26,16.37 -29.8,34.79 -42.01,54.24 -0.97,1.54 -1.26,3.51 -2.07,5.9 2.27,1.51 4.06,3.26 6.18,3.99 5.52,1.89 11.11,3.68 16.81,4.89 23.9,5.06 48.26,6.66 72.55,8.54 21.86,1.69 43.8,2.52 65.69,3.96 43.41,2.87 86.77,1.74 130.11,-1.27 6.29,-0.44 12.58,-1.61 18.77,-2.93 1.97,-0.42 3.6,-2.4 5.22,-3.56 -2.29,-6.28 -6.88,-9.36 -10.95,-12.72 -39.9,-32.79 -83.81,-58.63 -132.72,-75.54 -20.37,-7.04 -41.32,-11.25 -63.02,-11.46 -25.16,-0.24 -46.69,7.99 -64.54,25.97zm194.02 106.99c26.88,0.44 53.59,-1.65 80.25,-5.01 13.05,-1.65 26.2,-2.44 39.29,-3.7 1.9,-0.18 4.38,0.99 5.82,-1.96 -10.21,-3.43 -20.39,-3.89 -30.62,-3.8 -34.24,0.29 -67.89,5.37 -101.93,14.02 2.41,0.16 4.79,0.42 7.19,0.45zm-565.54 180.14c-22.64,-17.78 -45.89,-34.7 -70.93,-49.01 -14.1,-8.06 -29.01,-14 -45.09,-16.43 -10.1,-1.53 -20.36,-2.61 -30.57,-2.93 -42.44,-1.33 -84.87,-0.79 -127.21,2.86 -7.75,0.67 -15.52,1.74 -23.17,3.23 -5.69,1.12 -11.4,2.75 -16.76,4.96 -11.73,4.83 -18.52,13.78 -20.61,26.36 -2.13,12.76 -0.49,25.18 2.3,37.66 2.02,9.05 7.47,14.45 18.7,15.18 10.23,0.66 20.41,1.91 30.64,2.18 55.6,1.48 111.2,2.22 166.76,-1.44 21.9,-1.44 43.83,-2.33 65.7,-4.05 17.01,-1.34 33.96,-3.45 50.88,-5.53 2.53,-0.31 4.85,-2.3 8.2,-3.99 -3.46,-3.61 -5.83,-6.71 -8.82,-9.05z"/>
  <polygon class="fil1 str2" points="2553.91,655.39 2553.91,2069.59 1300.82,2069.59 1300.82,655.39 "/>
  <path class="fil3 str2" d="M2553.91 535.28l0 -4.03c0,-88.26 -71.45,-159.71 -159.71,-159.71l-933.75 -0.01c-88.16,0 -159.63,71.47 -159.63,159.73l0 4.02 0 120.11 1253.09 0 0 -120.11z"/>
  <path class="fil3 str2" d="M1300.82 2069.59l0 124.13c0,88.27 71.46,159.73 159.62,159.73l933.75 -0c88.27,0 159.71,-71.44 159.71,-159.72l0 -124.14 -1253.09 0z"/>
  <line class="fil4 str3" x1="1804.46" y1="513.46" x2="2050.28" y2= "513.46" />
  <path class="fil0" d="M2426.47 1534.44c-27.54,0 -49.8,-40.13 -49.8,-89.5 0,-49.36 22.27,-89.35 49.8,-89.35 27.54,-0 49.79,39.99 49.79,89.35 0,49.36 -22.25,89.5 -49.79,89.5zm-44.97 19.63c-0.29,0.29 -0.88,0.44 -1.32,0.44 -130.51,4.1 -261.02,8.06 -392.55,12.16 1.32,-4.1 4.53,-5.27 6.74,-7.18 2.05,-2.05 4.25,-3.96 6.15,-6.15 2.35,-2.64 4.39,-5.27 6.45,-8.06 1.75,-2.2 3.5,-4.54 5.71,-7.32 14.5,-2.05 29.44,-4.25 44.39,-6.15 30.03,-3.81 59.91,-7.91 89.93,-11.13 26.08,-2.78 52.3,-4.83 78.52,-7.18 31.63,-2.64 63.26,-3.07 94.91,-2.34 7.32,0.15 14.64,-0.15 23,3.66 11.13,14.21 22.25,28.27 37.79,36.91 0.29,1.46 0.43,2.05 0.29,2.34zm-444.41 8.64c-47.16,0 -85.54,-52.73 -85.54,-117.77 0,-64.89 38.38,-117.62 85.54,-117.62 47.16,0 85.4,52.73 85.4,117.62 0,65.04 -38.24,117.77 -85.4,117.77zm113.08 -75.14c18.9,-16.7 40.87,-28.27 64.01,-37.35 37.51,-14.65 76.61,-22.7 116.89,-24.02 19.49,-0.73 38.97,-0.73 58.43,0.29 14.08,0.59 27.98,3.37 41.9,5.71 5.14,0.73 10.54,2.05 14.2,7.91 -1.61,1.61 -2.78,4.1 -4.83,4.83 -7.17,2.64 -14.49,5.86 -21.98,7.18 -41.29,7.32 -82.61,13.92 -123.92,20.95 -33.54,5.86 -67.07,12.01 -100.62,18.02 -0.44,0.15 -0.74,0.73 -1.76,1.61 3.22,0.29 5.85,0.88 8.5,0.73 37.49,-1.61 74.98,-3.66 112.49,-4.69 34.13,-0.88 68.26,-0.73 102.39,-0.59 5.7,-0 11.42,1.76 17.14,3.08 1.76,0.44 3.06,2.05 6.43,4.39 -4.83,0.44 -7.61,0.88 -10.24,0.88 -31.64,1.02 -63.29,1.61 -94.92,3.07 -21.98,0.88 -43.8,2.78 -65.63,4.54 -35.45,2.78 -70.89,6.01 -106.34,8.79 -6.88,0.59 -13.76,0.59 -20.5,0.29 -2.79,-0.15 -5.42,-1.47 -9.81,-2.64 4.68,-10.4 11.27,-16.84 18.15,-23zm-239.93 3.66c1.62,0.59 3.66,1.9 5.86,2.2 6.15,1.17 12.44,1.91 18.75,3.08 3.08,0.44 5.41,1.9 5.85,6.44 -1.46,0.44 -3.08,1.17 -4.84,1.32 -3.36,0.29 -6.88,0.29 -10.26,0.29 -82.89,2.78 -165.66,5.86 -248.57,7.91 -35.59,1.02 -71.19,0.29 -106.78,-0.44 -25.78,-0.59 -51.55,-2.64 -77.49,-4.1 -3.22,-0.29 -6.59,-0.88 -10.26,-1.46 -0.87,-5.86 6.59,-6.15 6.74,-10.69 0.16,-1.46 0.44,-2.93 0.3,-4.39 -1.62,-13.04 -3.37,-26.07 -4.69,-39.11 -0.59,-4.83 -0.29,-9.81 -0.43,-14.65 0,-12.16 6.15,-20.36 16.84,-25.19 8.94,-4.1 18.45,-5.86 28.27,-6.88 36.78,-4.4 73.82,-6.45 110.89,-6.15 20.94,0.15 41.9,-0.15 62.84,0.73 13.19,0.59 26.36,2.2 39.25,4.39 21.54,3.52 40.72,13.33 58.59,25.34 15.09,9.96 29.3,20.95 43.94,31.64 5.42,3.95 10.7,8.35 16.26,12.3 3.66,2.49 7.47,4.83 11.43,6.45 10.4,4.25 20.21,3.22 28.41,-4.83 3.52,-3.37 6.74,-7.03 9.53,-10.99 8.35,-12.16 13.76,-25.63 20.21,-41.45 -4.39,-0.29 -6.74,-1.03 -8.94,-0.44 -5.12,1.17 -10.4,2.64 -15.38,4.54 -11.57,4.39 -23.57,5.86 -35.89,5.13 -6.29,-0.29 -12.59,-0.44 -21.97,-0.73 16.85,-7.32 32.23,-9.23 47.02,-12.74 14.5,-3.37 29.01,-7.47 45.12,-8.5 -0.29,2.64 -0.43,4.39 -0.87,6.01 -5.56,21.97 -13.92,42.62 -25.63,61.96 -2.2,3.66 -5.42,7.03 -4.11,13.04zm642.15 61.96c2.06,-2.2 3.08,-3.81 4.41,-4.98 9.23,-8.35 15.37,-18.75 20.21,-30.17 5.71,-13.62 8.79,-59.61 7.91,-98.14 -0.3,-6.74 -1.03,-13.62 -2.06,-20.36 -1.9,-14.06 -5.26,-27.83 -11.13,-40.72 -3.94,-8.5 -8.78,-16.41 -15.82,-22.7 -11.72,-10.84 -26.36,-12.74 -40.56,-5.57 -6.59,3.52 -12.02,8.35 -16.41,14.36 -3.65,5.13 -7.03,10.55 -10.11,16.11 -7.61,13.77 -12.88,18.16 -30.75,13.18 -22.11,-6.15 -44.97,-8.5 -67.98,-9.81 -40.86,-2.49 -81.88,-0.73 -122.74,1.32 -4.83,0.29 -9.81,-0.15 -14.49,-0.88 -2.06,-0.44 -3.66,-2.64 -5.72,-3.96 4.25,-7.62 11.13,-10.55 17.58,-13.48 17.87,-8.2 36.62,-13.77 55.66,-17.87 21.97,-4.69 43.95,-8.2 66.36,-10.4 -13.47,-2.05 -26.95,-1.47 -40.29,-0.59 -36.48,2.78 -72.95,5.57 -109.27,10.55 -29.88,4.25 -59.76,9.08 -87.89,20.65 -2.35,0.88 -4.55,1.76 -7.04,2.34 -10.4,2.78 -19.18,0.44 -25.48,-8.94 -2.2,-3.22 -4.41,-6.44 -6.89,-9.37 -4.68,-5.71 -9.08,-11.57 -14.2,-16.7 -23.59,-22.85 -50.82,-27.1 -81,-15.09 -12.89,5.13 -23.73,13.48 -33.39,23.14 -3.82,3.81 -7.62,7.62 -11.73,10.99 -5.41,4.39 -60.34,19.63 -80.56,22.12 -24.6,2.93 -49.51,4.54 -74.25,6.59 -1.9,0.15 -4.55,1.17 -6.01,-2.2 12.3,-5.42 24.9,-8.79 37.21,-13.18 14.35,-4.98 28.99,-8.5 44.39,-8.06 5.56,0.29 10.54,-1.02 15.08,-4.25 4.39,-3.08 8.8,-6.15 13.33,-9.08 4.83,-3.08 9.81,-6.01 16.69,-10.4 -10.1,-0.29 -17.87,-0.59 -25.48,1.47 -10.4,2.78 -20.66,5.57 -30.77,9.08 -33.54,12.01 -66.93,24.17 -100.19,36.62 -13.76,5.13 -27.82,5.13 -42.18,3.95 2.35,-1.9 4.98,-3.08 7.62,-4.1 10.54,-3.66 21.23,-7.32 31.63,-11.13 33.54,-12.3 66.8,-24.61 100.35,-36.77 12.3,-4.54 25.05,-8.06 38.22,-8.79 14.22,-1.03 28.28,-1.9 42.34,-2.34 8.05,-0.29 15.23,-2.05 22.26,-6.3 17.58,-10.69 36.92,-17.43 57.42,-20.36 16.85,-2.49 33.84,-4.54 51.85,-7.03 -2.93,-0.15 -4.83,-0.44 -6.88,-0.29 -27.25,0.88 -54.48,1.76 -81.88,2.93 -12.16,0.59 -24.32,1.76 -36.33,3.22 -35.59,4.25 -70.01,12.74 -103.55,24.75 -18.02,6.44 -35.89,12.89 -53.76,19.19 -16.12,5.71 -32.81,9.52 -49.95,10.4 -23.44,1.17 -46.73,1.91 -70.16,3.08 -27.25,1.32 -54.5,3.22 -81.88,4.54 -14.5,0.73 -29.15,1.03 -43.8,1.32 -2.93,0.15 -6.01,-0.15 -7.32,-3.66 3.8,-7.18 3.8,-7.18 7.61,-10.11 7.18,-5.71 9.67,-7.03 18.31,-9.08 -3.07,6.88 -11.27,9.37 -12.89,17.87 5.56,0 10.4,0.29 15.24,0 33.54,-2.34 67.09,-4.69 100.63,-7.18 20.66,-1.47 40.28,-6.45 58.59,-16.7 10.11,-5.71 20.94,-10.55 31.78,-14.5 44.09,-16.26 89.79,-26.51 136.38,-32.22 4.25,-0.59 8.48,0 15.52,0 -17.72,6.74 -33.69,10.99 -49.22,18.6 4.83,2.64 8.21,0.73 11.73,-0.29 38.66,-10.69 77.91,-17.72 118.05,-19.19 22.41,-0.88 44.81,-1.76 67.23,-2.93 10.84,-0.59 21.53,-1.46 32.08,-2.78 14.49,-1.76 27.24,-7.47 37.49,-18.02 9.08,-9.67 17.87,-19.48 26.95,-29 8.21,-8.35 16.26,-16.84 24.9,-24.61 15.23,-13.62 32.96,-22.56 53.31,-25.49 5.72,-0.88 11.43,-2.05 19.78,-3.52 -23.29,-4.25 -44.08,-6.44 -64.88,-7.18 -55.23,-1.76 -110.3,-0.44 -164.94,8.06 -37.64,5.86 -74.7,14.21 -110.73,26.8 -40.87,14.35 -78.8,33.84 -112.35,61.37 -10.11,8.35 -19.63,17.58 -29.6,26.66 -3.5,0.58 -7.32,1.46 -11.27,1.76 -30.61,2.63 -147.21,19.19 -173.73,26.66 -16.41,4.54 -32.82,9.52 -47.89,17.58 -8.05,4.25 -16.26,9.08 -23.14,15.09 -11.72,10.25 -12.89,19.92 -6.01,33.98 1.46,2.93 2.79,5.71 4.53,9.52 -6.15,0.15 -10.99,1.03 -14.65,-1.61 -5.71,-4.39 -4.39,-11.28 -7.91,-17.14 -2.19,6.15 -4.09,11.43 -6.15,16.99 -1.9,-0.44 -3.22,-0.73 -4.54,-1.03l0 -13.48c-1.76,1.61 -3.07,2.34 -3.96,3.52 -13.47,15.53 -19.04,33.98 -17.28,54.2 1.62,18.9 3.66,37.94 6.29,56.69 1.62,11.28 1.33,21.39 -8.93,28.85 -0.73,0.44 -0.89,1.61 -1.32,2.64 -1.03,6.74 2.33,11.57 8.2,13.77 5.28,2.05 11.29,3.08 16.99,3.66 8.64,0.88 17.58,0.73 26.22,1.47 11.13,0.88 20.8,4.98 28.57,13.18 2.92,3.22 6.44,6.01 9.67,8.93 12.45,10.69 26.51,18.02 42.77,21.24 17.87,3.66 35.59,4.25 53.76,2.49 19.62,-1.76 36.9,-8.64 52,-20.95 4.25,-3.52 8.35,-6.88 12.3,-10.55 5.28,-4.84 11.13,-7.18 18.45,-7.47 21.39,-0.44 42.93,-1.76 64.31,-2.34 26.81,-0.73 53.6,-1.32 80.56,-1.76 8.2,-0.15 16.55,0.44 24.75,0.59 10.11,-0 17.58,4.25 23.87,12.01 7.77,9.52 16.71,17.72 27.11,24.31 0.59,0.44 0.73,1.47 1.17,2.93 -3.66,1.76 -7.48,1.46 -11.29,1.61 -18.6,0.44 -37.06,0.73 -55.66,1.17 -63.28,1.9 -126.71,3.81 -190.13,6.01 -44.37,1.47 -88.76,3.22 -132.99,5.13 -28.87,1.17 -57.57,2.93 -86.28,4.39 9.67,1.32 19.34,1.61 29.01,1.76 117.02,0.73 234.2,0 351.24,-2.49 25.35,-0.59 50.82,-0.59 76.17,-1.32 43.8,-1.32 87.74,-3.08 131.54,-4.54 42.91,-1.32 85.83,-2.34 128.74,-3.81 28.87,-0.88 57.58,-2.05 86.28,-3.37 34.56,-1.46 69.28,-3.08 103.85,-4.69 26.8,-1.17 53.61,-2.34 80.42,-3.81 16.54,-0.88 33.09,-1.9 49.64,-3.22 21.39,-1.47 42.77,-3.37 64.16,-4.83 7.77,-0.44 15.37,-1.32 22.86,-4.54 -17.58,-0.44 -35.01,1.61 -53.91,-0zm-353.06 -359.97c-16.26,16.37 -29.8,34.79 -42.01,54.24 -0.97,1.54 -1.26,3.51 -2.08,5.9 2.28,1.51 4.06,3.26 6.18,3.99 5.52,1.89 11.11,3.68 16.81,4.89 23.9,5.06 48.26,6.66 72.55,8.54 21.86,1.69 43.8,2.52 65.69,3.96 43.41,2.87 86.77,1.74 130.11,-1.28 6.29,-0.44 12.58,-1.61 18.77,-2.93 1.97,-0.42 3.6,-2.4 5.22,-3.56 -2.29,-6.28 -6.88,-9.36 -10.95,-12.72 -39.9,-32.8 -83.81,-58.63 -132.72,-75.54 -20.37,-7.04 -41.32,-11.25 -63.02,-11.46 -25.16,-0.24 -46.69,7.99 -64.54,25.97zm194.02 106.99c26.88,0.44 53.59,-1.65 80.25,-5.01 13.05,-1.65 26.2,-2.44 39.29,-3.7 1.9,-0.18 4.38,0.99 5.82,-1.96 -10.21,-3.43 -20.39,-3.89 -30.62,-3.8 -34.24,0.29 -67.89,5.37 -101.93,14.02 2.41,0.16 4.79,0.42 7.19,0.45zm-565.54 180.14c-22.64,-17.78 -45.89,-34.7 -70.93,-49.01 -14.1,-8.06 -29.01,-14 -45.09,-16.43 -10.1,-1.53 -20.36,-2.61 -30.57,-2.93 -42.44,-1.33 -84.87,-0.79 -127.21,2.86 -7.75,0.67 -15.52,1.74 -23.17,3.23 -5.69,1.11 -11.4,2.75 -16.76,4.96 -11.73,4.83 -18.52,13.78 -20.61,26.36 -2.13,12.76 -0.49,25.18 2.3,37.66 2.02,9.05 7.47,14.45 18.7,15.18 10.23,0.66 20.41,1.91 30.64,2.19 55.6,1.48 111.2,2.22 166.76,-1.44 21.9,-1.44 43.83,-2.33 65.7,-4.05 17.01,-1.34 33.96,-3.45 50.88,-5.53 2.53,-0.31 4.85,-2.3 8.2,-3.99 -3.46,-3.61 -5.84,-6.71 -8.83,-9.05z"/>
  <rect class="fil5 str4" x="3644.4" y="1674.19" width="307.31" height="307.31" rx="59.48" ry="59.48"/>
  <rect class="fil0" x="2945.29" y="1674.19" width="307.31" height="307.31" rx="59.48" ry="59.48"/>
  <path class="fil3 str5" d="M5615.57 535.28l0 -4.03c0,-88.26 -71.45,-159.71 -159.72,-159.71l-933.75 -0.01c-88.16,0 -159.63,71.47 -159.63,159.73l0 4.02 0 120.11 1253.09 0 0 -120.11z"/>
  <path class="fil3 str5" d="M4362.48 2069.59l0 124.13c0,88.27 71.46,159.73 159.62,159.73l933.75 -0c88.27,0 159.72,-71.44 159.72,-159.72l0 -124.14 -1253.09 0z"/>
  <line class="fil4 str6" x1="4866.12" y1="513.46" x2="5111.94" y2= "513.46" />
  <path class="fil1" d="M1070.34 32.38l220.87 253.83c10.41,11.97 9.14,30.22 -2.82,40.63 -11.97,10.41 -30.22,9.14 -40.63,-2.82l-220.87 -253.83c-10.41,-11.97 -9.14,-30.22 2.82,-40.63 11.97,-10.41 30.22,-9.14 40.63,2.82z"/>
  <path class="fil1" d="M1399.02 27.55l41.17 204.23c3.13,15.55 -6.99,30.79 -22.54,33.92 -15.55,3.13 -30.79,-6.99 -33.92,-22.54l-41.17 -204.23c-3.13,-15.55 6.99,-30.79 22.54,-33.92 15.55,-3.13 30.79,6.99 33.92,22.54z"/>
  <path class="fil1" d="M986.69 331.3l197.21 67.17c15.01,5.11 23.09,21.53 17.97,36.55 -5.11,15.01 -21.53,23.09 -36.55,17.97l-197.21 -67.17c-15.01,-5.11 -23.09,-21.53 -17.98,-36.55 5.11,-15.01 21.53,-23.09 36.55,-17.97z"/>
  <path class="fil1" d="M1623.03 31.23l-17.57 207.59c-1.34,15.8 -15.32,27.6 -31.13,26.27 -15.8,-1.34 -27.61,-15.32 -26.27,-31.13l17.57 -207.59c1.34,-15.8 15.32,-27.61 31.13,-26.27 15.8,1.34 27.6,15.32 26.27,31.13z"/>
  <path class="fil1" d="M955.07 547.32l208.33 -1.59c15.86,-0.12 28.9,12.72 29.02,28.58 0.12,15.86 -12.72,28.9 -28.58,29.02l-208.33 1.59c-15.86,0.12 -28.9,-12.72 -29.02,-28.58 -0.12,-15.86 12.72,-28.9 28.58,-29.02z"/>
  <circle class="fil5 str4" cx="1917.53" cy="1835.12" r="103.35"/>
  <polygon class="fil1 str5" points="5615.57,655.39 5615.57,2069.59 4362.48,2069.59 4362.48,655.39 "/>
  <rect class="fil6 str7" x="3211.38" y="1533.13" width="474.24" height="474.24" rx="91.79" ry="91.79"/>
  <path class="fil6" d="M5228.17 1084.97c-0.01,-0 -0.03,-0.01 -0.04,-0.01 -21.45,-3.91 -43.08,-6.46 -64.88,-7.18 -55.05,-1.8 -110.44,-0.42 -164.94,8.06 -37.57,5.84 -74.81,14.22 -110.73,26.8 -40.72,14.27 -78.91,33.89 -112.35,61.37 -8.84,7.27 -17.15,15.2 -25.56,22.96 -2.78,2.56 -5.81,4.06 -9.54,4.69 -1.91,0.33 -3.83,0.6 -5.77,0.76 -12.15,1.03 -24.24,2.64 -36.33,4.22 -17.38,2.27 -34.73,4.72 -52.06,7.3 -17.13,2.56 -34.24,5.23 -51.3,8.21 -11.34,1.98 -22.95,3.83 -34.03,6.93 -16.33,4.57 -32.86,9.58 -47.89,17.58 -8.09,4.3 -16.23,9.04 -23.14,15.09 -3.82,3.34 -7.51,7.52 -9.2,12.39 -2.34,6.74 -7.84,11.31 -14.9,12.37 -0.03,0 -0.07,0.01 -0.1,0.02 -3.32,1.89 -6.67,2.67 -10.47,2.42 -0.02,0.02 -0.04,0.03 -0.05,0.05 -1.01,0.93 -3.08,2.44 -3.89,3.43 -0.09,0.11 -0.17,0.2 -0.26,0.31 -13.25,15.39 -18.83,33.8 -17.09,53.97 1.64,18.94 3.63,37.86 6.29,56.69 1.53,10.78 1.47,20.49 -7.99,28.14 -0.37,0.3 -0.7,0.55 -1.1,0.82 -0.03,0.02 -0.08,0.05 -0.11,0.08 -0.28,0.31 -0.66,1.38 -0.79,1.75 -0.08,0.24 -0.16,0.45 -0.26,0.69 0,0 -0,0 -0,0 -0.52,3.4 0.09,6.39 1.67,8.8l223.81 5.98 229.84 -5.14 91.79 57.28 36.72 -0.73 62.42 -51.4 288.59 -19.83 87.38 28.64 41.12 10.28 45.62 -24.05 6.44 -39.73c1.48,-19.42 10.59,-47.62 10.15,-67.08 -0.3,-6.83 -1.11,-13.65 -2.07,-20.41 -1.96,-13.94 -5.23,-27.82 -11.12,-40.67 -3.9,-8.5 -8.88,-16.36 -15.82,-22.7 -33.8,-30.87 -167.21,-164.54 -298.06,-169.14zm-229.42 404.41c-25.12,0 -46.14,-14.8 -60.46,-34.49 -17.24,-23.72 -25.08,-54.19 -25.08,-83.27 0,-29.04 7.86,-59.46 25.08,-83.14 12.58,-17.29 29.69,-32.25 51.58,-35.26 18.8,-2.58 36.56,4.52 50.78,16.61 27.82,23.65 43.49,65.67 43.49,101.8 0,29.06 -7.81,59.54 -25.01,83.27 -14.29,19.7 -35.27,34.49 -60.38,34.49zm489.37 -28.27c-16.03,-0 -28.01,-13.26 -35.23,-26.24 -10.38,-18.67 -14.57,-42.05 -14.57,-63.26 0,-21.19 4.19,-44.54 14.57,-63.19 7.23,-12.97 19.2,-26.16 35.23,-26.16 16.02,0 28,13.19 35.22,26.16 10.39,18.65 14.57,42 14.57,63.19 0,28.31 -12.44,89.5 -49.79,89.5z"/>
  <path class="fil0" d="M5488.12 1461.11c-27.54,0 -49.8,-40.13 -49.8,-89.5 0,-49.36 22.26,-89.35 49.8,-89.35 27.54,-0 49.79,39.99 49.79,89.35 0,49.36 -22.25,89.5 -49.79,89.5zm-44.97 19.63c-0.29,0.29 -0.88,0.44 -1.32,0.44 -130.51,4.1 -261.02,8.06 -392.55,12.16 1.32,-4.1 4.53,-5.27 6.74,-7.18 2.05,-2.05 4.25,-3.96 6.15,-6.15 2.35,-2.64 4.39,-5.27 6.45,-8.06 1.75,-2.2 3.5,-4.54 5.71,-7.32 14.5,-2.05 29.44,-4.25 44.39,-6.15 30.02,-3.81 59.91,-7.91 89.93,-11.13 26.08,-2.78 52.3,-4.83 78.52,-7.18 31.63,-2.64 63.26,-3.07 94.91,-2.34 7.32,0.15 14.64,-0.15 23,3.66 11.13,14.21 22.25,28.27 37.79,36.91 0.29,1.46 0.43,2.05 0.29,2.34zm-444.4 8.64c-47.16,0 -85.54,-52.73 -85.54,-117.77 0,-64.89 38.38,-117.62 85.54,-117.62 47.16,-0 85.4,52.73 85.4,117.62 0,65.03 -38.24,117.77 -85.4,117.77zm113.07 -75.14c18.9,-16.7 40.87,-28.27 64.01,-37.35 37.51,-14.65 76.61,-22.7 116.89,-24.02 19.49,-0.73 38.97,-0.73 58.43,0.29 14.08,0.59 27.98,3.37 41.9,5.71 5.14,0.73 10.54,2.05 14.2,7.91 -1.61,1.61 -2.78,4.1 -4.83,4.83 -7.17,2.64 -14.49,5.86 -21.98,7.18 -41.29,7.32 -82.61,13.92 -123.91,20.95 -33.54,5.86 -67.07,12.01 -100.62,18.02 -0.44,0.15 -0.74,0.73 -1.76,1.61 3.22,0.29 5.85,0.88 8.5,0.73 37.49,-1.61 74.98,-3.66 112.49,-4.69 34.13,-0.88 68.26,-0.73 102.39,-0.59 5.7,-0 11.42,1.76 17.14,3.08 1.76,0.44 3.07,2.05 6.43,4.39 -4.83,0.44 -7.61,0.88 -10.24,0.88 -31.64,1.02 -63.29,1.61 -94.92,3.08 -21.97,0.88 -43.8,2.78 -65.63,4.54 -35.45,2.78 -70.89,6.01 -106.34,8.79 -6.88,0.59 -13.76,0.59 -20.5,0.29 -2.79,-0.15 -5.42,-1.47 -9.81,-2.64 4.68,-10.4 11.27,-16.84 18.15,-23zm-239.92 3.66c1.62,0.59 3.66,1.9 5.86,2.2 6.15,1.17 12.44,1.9 18.75,3.08 3.08,0.44 5.41,1.9 5.85,6.44 -1.46,0.44 -3.08,1.17 -4.84,1.32 -3.36,0.29 -6.88,0.29 -10.26,0.29 -82.89,2.78 -165.66,5.86 -248.56,7.91 -35.59,1.02 -71.19,0.29 -106.78,-0.44 -25.78,-0.59 -51.55,-2.64 -77.49,-4.1 -3.22,-0.29 -6.59,-0.88 -10.26,-1.46 -0.87,-5.86 6.59,-6.15 6.74,-10.69 0.16,-1.46 0.44,-2.93 0.3,-4.39 -1.62,-13.04 -3.37,-26.07 -4.69,-39.11 -0.59,-4.83 -0.29,-9.81 -0.43,-14.65 0,-12.16 6.15,-20.36 16.84,-25.19 8.94,-4.1 18.45,-5.86 28.27,-6.88 36.78,-4.4 73.82,-6.45 110.89,-6.15 20.94,0.15 41.9,-0.15 62.84,0.73 13.19,0.59 26.36,2.2 39.25,4.39 21.54,3.52 40.72,13.33 58.59,25.34 15.09,9.96 29.3,20.95 43.94,31.64 5.42,3.95 10.7,8.35 16.26,12.3 3.66,2.49 7.47,4.83 11.43,6.45 10.4,4.25 20.21,3.22 28.41,-4.83 3.52,-3.37 6.74,-7.03 9.53,-10.99 8.35,-12.16 13.76,-25.63 20.21,-41.45 -4.39,-0.29 -6.74,-1.03 -8.94,-0.44 -5.12,1.17 -10.4,2.64 -15.38,4.54 -11.57,4.39 -23.57,5.86 -35.89,5.13 -6.29,-0.29 -12.59,-0.44 -21.97,-0.73 16.85,-7.32 32.23,-9.23 47.02,-12.74 14.5,-3.37 29.01,-7.47 45.11,-8.5 -0.29,2.64 -0.43,4.39 -0.87,6.01 -5.56,21.97 -13.92,42.62 -25.63,61.96 -2.2,3.66 -5.42,7.03 -4.11,13.04zm642.14 61.96c2.06,-2.2 3.08,-3.81 4.41,-4.98 9.23,-8.35 15.37,-18.75 20.21,-30.17 5.71,-13.62 8.79,-59.61 7.91,-98.14 -0.3,-6.74 -1.03,-13.62 -2.06,-20.36 -1.9,-14.06 -5.26,-27.83 -11.13,-40.72 -3.94,-8.5 -8.78,-16.41 -15.82,-22.7 -11.72,-10.84 -26.36,-12.74 -40.56,-5.57 -6.59,3.52 -12.02,8.35 -16.41,14.36 -3.65,5.13 -7.03,10.55 -10.11,16.11 -7.61,13.77 -12.89,18.16 -30.75,13.18 -22.11,-6.15 -44.97,-8.5 -67.97,-9.81 -40.86,-2.49 -81.88,-0.73 -122.74,1.32 -4.83,0.29 -9.81,-0.15 -14.49,-0.88 -2.06,-0.44 -3.66,-2.64 -5.72,-3.96 4.25,-7.62 11.13,-10.55 17.58,-13.48 17.87,-8.2 36.62,-13.77 55.66,-17.87 21.97,-4.69 43.95,-8.2 66.36,-10.4 -13.47,-2.05 -26.95,-1.47 -40.29,-0.59 -36.48,2.78 -72.95,5.57 -109.27,10.55 -29.88,4.25 -59.76,9.08 -87.88,20.65 -2.35,0.88 -4.55,1.76 -7.04,2.35 -10.4,2.78 -19.18,0.44 -25.48,-8.94 -2.2,-3.22 -4.41,-6.44 -6.89,-9.37 -4.68,-5.71 -9.08,-11.57 -14.2,-16.7 -23.59,-22.85 -50.82,-27.1 -81,-15.09 -12.89,5.13 -23.73,13.48 -33.39,23.14 -3.82,3.81 -7.62,7.62 -11.73,10.99 -5.41,4.39 -60.33,19.63 -80.56,22.12 -24.6,2.93 -49.51,4.54 -74.25,6.59 -1.9,0.15 -4.55,1.17 -6.01,-2.2 12.3,-5.42 24.9,-8.79 37.21,-13.18 14.35,-4.98 28.99,-8.5 44.39,-8.06 5.56,0.29 10.54,-1.02 15.08,-4.25 4.39,-3.08 8.8,-6.15 13.33,-9.08 4.83,-3.08 9.81,-6.01 16.69,-10.4 -10.1,-0.29 -17.87,-0.59 -25.48,1.47 -10.4,2.78 -20.66,5.57 -30.77,9.08 -33.54,12.01 -66.93,24.17 -100.19,36.62 -13.76,5.13 -27.82,5.13 -42.18,3.95 2.35,-1.9 4.98,-3.08 7.62,-4.1 10.54,-3.66 21.23,-7.32 31.63,-11.13 33.54,-12.3 66.8,-24.61 100.34,-36.77 12.3,-4.54 25.05,-8.06 38.22,-8.79 14.22,-1.03 28.28,-1.9 42.34,-2.34 8.05,-0.29 15.23,-2.05 22.26,-6.3 17.58,-10.69 36.92,-17.43 57.42,-20.36 16.85,-2.49 33.84,-4.54 51.85,-7.03 -2.93,-0.15 -4.83,-0.44 -6.88,-0.29 -27.25,0.88 -54.48,1.76 -81.88,2.93 -12.16,0.59 -24.32,1.76 -36.33,3.22 -35.59,4.25 -70.01,12.74 -103.55,24.75 -18.02,6.44 -35.89,12.89 -53.76,19.19 -16.12,5.71 -32.81,9.52 -49.95,10.4 -23.45,1.17 -46.73,1.9 -70.16,3.08 -27.25,1.32 -54.5,3.22 -81.88,4.54 -14.5,0.73 -29.15,1.03 -43.8,1.32 -2.93,0.15 -6.01,-0.15 -7.32,-3.66 3.8,-7.18 3.8,-7.18 7.61,-10.11 7.18,-5.71 9.67,-7.03 18.31,-9.08 -3.08,6.88 -11.27,9.37 -12.89,17.87 5.56,-0 10.4,0.29 15.23,0 33.54,-2.35 67.09,-4.69 100.63,-7.18 20.66,-1.47 40.28,-6.45 58.59,-16.7 10.11,-5.71 20.94,-10.55 31.78,-14.5 44.09,-16.26 89.79,-26.51 136.38,-32.22 4.25,-0.59 8.48,0 15.52,0 -17.72,6.74 -33.69,10.99 -49.22,18.6 4.84,2.64 8.21,0.73 11.73,-0.29 38.66,-10.69 77.91,-17.72 118.05,-19.19 22.41,-0.88 44.81,-1.76 67.23,-2.93 10.84,-0.59 21.53,-1.46 32.08,-2.78 14.49,-1.76 27.24,-7.47 37.49,-18.02 9.08,-9.67 17.87,-19.48 26.95,-29 8.21,-8.35 16.26,-16.84 24.9,-24.61 15.23,-13.62 32.96,-22.56 53.31,-25.49 5.72,-0.88 11.43,-2.05 19.78,-3.52 -23.29,-4.25 -44.08,-6.44 -64.88,-7.18 -55.23,-1.76 -110.3,-0.44 -164.94,8.06 -37.64,5.86 -74.7,14.21 -110.73,26.8 -40.87,14.35 -78.8,33.84 -112.35,61.37 -10.11,8.35 -19.63,17.58 -29.6,26.66 -3.5,0.58 -7.32,1.46 -11.27,1.76 -30.61,2.63 -147.2,19.19 -173.72,26.66 -16.41,4.54 -32.81,9.52 -47.89,17.58 -8.05,4.25 -16.26,9.08 -23.14,15.09 -11.72,10.25 -12.89,19.92 -6.01,33.98 1.46,2.93 2.79,5.71 4.53,9.52 -6.15,0.15 -10.98,1.03 -14.65,-1.61 -5.71,-4.39 -4.39,-11.28 -7.91,-17.14 -2.19,6.15 -4.09,11.43 -6.15,16.99 -1.9,-0.44 -3.22,-0.73 -4.54,-1.03l0 -13.48c-1.76,1.61 -3.07,2.34 -3.96,3.52 -13.47,15.53 -19.04,33.98 -17.28,54.2 1.62,18.9 3.66,37.94 6.29,56.69 1.62,11.28 1.33,21.38 -8.93,28.85 -0.73,0.44 -0.89,1.61 -1.32,2.64 -1.03,6.74 2.33,11.57 8.2,13.77 5.28,2.05 11.29,3.08 16.99,3.66 8.64,0.88 17.58,0.73 26.22,1.47 11.13,0.88 20.8,4.98 28.56,13.18 2.92,3.22 6.44,6.01 9.67,8.93 12.45,10.69 26.51,18.02 42.77,21.24 17.87,3.66 35.59,4.25 53.76,2.49 19.62,-1.76 36.9,-8.64 52,-20.95 4.25,-3.52 8.35,-6.88 12.3,-10.55 5.28,-4.84 11.13,-7.18 18.45,-7.47 21.38,-0.44 42.93,-1.76 64.31,-2.34 26.81,-0.73 53.6,-1.32 80.56,-1.76 8.2,-0.15 16.55,0.44 24.75,0.59 10.11,-0 17.58,4.25 23.87,12.01 7.77,9.52 16.71,17.72 27.11,24.31 0.59,0.44 0.73,1.47 1.17,2.93 -3.66,1.76 -7.48,1.46 -11.29,1.61 -18.59,0.44 -37.06,0.73 -55.66,1.17 -63.28,1.9 -126.71,3.81 -190.13,6.01 -44.37,1.46 -88.76,3.22 -132.99,5.13 -28.87,1.17 -57.57,2.93 -86.28,4.39 9.67,1.32 19.34,1.61 29.01,1.76 117.02,0.73 234.2,0 351.24,-2.49 25.35,-0.59 50.82,-0.59 76.17,-1.32 43.8,-1.32 87.74,-3.08 131.54,-4.54 42.91,-1.32 85.83,-2.34 128.74,-3.81 28.87,-0.88 57.58,-2.05 86.28,-3.37 34.56,-1.46 69.28,-3.08 103.85,-4.69 26.8,-1.17 53.61,-2.34 80.42,-3.81 16.54,-0.88 33.09,-1.91 49.64,-3.22 21.39,-1.47 42.77,-3.37 64.16,-4.83 7.77,-0.44 15.37,-1.32 22.86,-4.54 -17.58,-0.44 -35.01,1.61 -53.91,-0zm-353.06 -359.97c-16.26,16.37 -29.8,34.79 -42.01,54.24 -0.97,1.54 -1.26,3.51 -2.08,5.9 2.27,1.51 4.06,3.26 6.18,3.99 5.52,1.89 11.11,3.68 16.81,4.89 23.9,5.06 48.26,6.66 72.55,8.54 21.86,1.69 43.8,2.52 65.68,3.96 43.41,2.87 86.77,1.74 130.11,-1.27 6.29,-0.44 12.58,-1.61 18.77,-2.93 1.97,-0.42 3.6,-2.4 5.22,-3.56 -2.29,-6.28 -6.88,-9.36 -10.95,-12.72 -39.9,-32.8 -83.81,-58.63 -132.72,-75.54 -20.37,-7.04 -41.32,-11.25 -63.02,-11.46 -25.16,-0.24 -46.69,7.99 -64.54,25.97zm194.02 106.99c26.88,0.44 53.59,-1.65 80.25,-5.01 13.05,-1.65 26.2,-2.44 39.29,-3.7 1.9,-0.18 4.38,0.99 5.82,-1.96 -10.21,-3.43 -20.39,-3.89 -30.62,-3.8 -34.24,0.29 -67.89,5.37 -101.93,14.02 2.41,0.16 4.79,0.42 7.19,0.45zm-565.53 180.14c-22.64,-17.78 -45.89,-34.7 -70.93,-49.01 -14.1,-8.06 -29.01,-14 -45.09,-16.43 -10.1,-1.53 -20.35,-2.61 -30.57,-2.93 -42.44,-1.33 -84.87,-0.79 -127.21,2.86 -7.75,0.67 -15.52,1.74 -23.17,3.23 -5.69,1.11 -11.4,2.75 -16.76,4.96 -11.73,4.83 -18.52,13.78 -20.61,26.36 -2.13,12.76 -0.49,25.18 2.3,37.66 2.02,9.05 7.47,14.45 18.7,15.18 10.23,0.66 20.41,1.91 30.64,2.19 55.6,1.48 111.2,2.22 166.76,-1.44 21.9,-1.44 43.83,-2.33 65.7,-4.05 17.01,-1.34 33.96,-3.45 50.88,-5.53 2.53,-0.31 4.85,-2.3 8.2,-3.99 -3.46,-3.61 -5.84,-6.71 -8.83,-9.05z"/>
  <g id="_51044184896">
   <circle class="fil2" cx="5096.57" cy="1680.08" r="66.21"/>
   <circle class="fil2" cx="5096.57" cy="1916.27" r="66.21"/>
   <circle class="fil2" cx="4886.61" cy="1792.72" r="66.21"/>
   <rect class="fil2" transform="matrix(0.875944 -4.82412E-001 0.482412 0.875944 4895.62 1759.45)" width="196.22" height="54.51"/>
   <rect class="fil2" transform="matrix(0.884235 0.467042 -4.67042E-001 0.884235 4919.37 1781.97)" width="196.22" height="54.51"/>
  </g>
  <g id="_51044184704">
   <path class="fil6" d="M5809.85 833.88l-269.18 258.81c-20.49,19.7 -53.28,19.06 -72.99,-1.43 -19.7,-20.49 -19.06,-53.28 1.44,-72.99l269.17 -258.81c20.49,-19.7 53.28,-19.06 72.99,1.43 19.7,20.49 19.06,53.28 -1.43,72.99z"/>
   <path class="fil6" d="M4299.84 739.01l282.46 244.24c21.5,18.59 23.88,51.3 5.28,72.81 -18.59,21.51 -51.3,23.88 -72.81,5.28l-282.47 -244.24c-21.5,-18.6 -23.88,-51.3 -5.29,-72.81 18.6,-21.5 51.3,-23.88 72.81,-5.28z"/>
   <path class="fil6" d="M5517.16 551.25l-184.14 324.86c-14.02,24.73 -45.63,33.47 -70.36,19.45 -24.73,-14.02 -33.47,-45.63 -19.45,-70.36l184.13 -324.86c14.02,-24.73 45.63,-33.47 70.36,-19.45 24.73,14.02 33.47,45.63 19.45,70.36z"/>
   <path class="fil6" d="M5058.63 404.2l1.6 386.31c0.12,29.41 -23.77,53.5 -53.18,53.62 -29.41,0.12 -53.5,-23.77 -53.62,-53.18l-1.6 -386.31c-0.12,-29.41 23.77,-53.5 53.18,-53.62 29.41,-0.12 53.5,23.77 53.62,53.18z"/>
   <path class="fil6" d="M4514.92 551.25l184.14 324.86c14.02,24.73 45.63,33.47 70.36,19.45 24.73,-14.02 33.47,-45.63 19.45,-70.36l-184.13 -324.86c-14.02,-24.73 -45.63,-33.47 -70.36,-19.45 -24.73,14.02 -33.47,45.63 -19.45,70.36z"/>
  </g>
 </g>
</svg>
